<?xml version="1.0" encoding="UTF-8" standalone="no"?>
<!-- Created with Inkscape (http://www.inkscape.org/) -->

<svg
   xmlns:dc="http://purl.org/dc/elements/1.1/"
   xmlns:cc="http://creativecommons.org/ns#"
   xmlns:rdf="http://www.w3.org/1999/02/22-rdf-syntax-ns#"
   xmlns:svg="http://www.w3.org/2000/svg"
   xmlns="http://www.w3.org/2000/svg"
   xmlns:sodipodi="http://sodipodi.sourceforge.net/DTD/sodipodi-0.dtd"
   xmlns:inkscape="http://www.inkscape.org/namespaces/inkscape"
   width="61.14388mm"
   height="40.58858mm"
   viewBox="0 0 216.6516 143.8177"
   id="svg2"
   version="1.1"
   inkscape:version="0.91 r13725"
   sodipodi:docname="logo.svg">
  <defs
     id="defs4" />
  <sodipodi:namedview
     id="base"
     pagecolor="#ffffff"
     bordercolor="#666666"
     borderopacity="1.0"
     inkscape:pageopacity="0.0"
     inkscape:pageshadow="2"
     inkscape:zoom="0.7"
     inkscape:cx="-153.9225"
     inkscape:cy="-36.58965"
     inkscape:document-units="px"
     inkscape:current-layer="layer1"
     showgrid="false"
     inkscape:window-width="2560"
     inkscape:window-height="1386"
     inkscape:window-x="0"
     inkscape:window-y="0"
     inkscape:window-maximized="1"
     fit-margin-top="0"
     fit-margin-left="0"
     fit-margin-right="0"
     fit-margin-bottom="0" />
  <metadata
     id="metadata7">
    <rdf:RDF>
      <cc:Work
         rdf:about="">
        <dc:format>image/svg+xml</dc:format>
        <dc:type
           rdf:resource="http://purl.org/dc/dcmitype/StillImage" />
        <dc:title></dc:title>
      </cc:Work>
    </rdf:RDF>
  </metadata>
  <g
     inkscape:label="Layer 1"
     inkscape:groupmode="layer"
     id="layer1"
     transform="translate(-230.5897,-174.0603)">
    <g
       id="g4177"
       transform="matrix(0.5792307,0,0,0.5792307,168.063,79.33798)">
      <path
         id="path4150"
         d="M 180.4333,367.457 C 180.4333,376.876 179.3737,384.4834 177.2546,390.2744 175.1354,396.0703 172.1227,400.5674 168.2116,403.7705 164.3053,406.9737 159.6178,409.1171 154.154,410.2011 148.6901,411.2803 142.611,411.8223 135.9264,411.8223 126.8786,411.8223 119.9548,410.4112 115.155,407.584 110.3503,404.7568 107.9479,401.3681 107.9479,397.4081 107.9479,394.1123 109.2858,391.334 111.9714,389.0733 114.6569,386.8125 118.2604,385.6845 122.7819,385.6845 126.1755,385.6845 128.8854,386.6025 130.9069,388.4385 132.9333,390.2744 134.6081,392.0908 135.9264,393.8779 137.4303,395.8554 138.7048,397.1738 139.7399,397.833 140.7751,398.4921 141.7175,398.8242 142.5671,398.8242 144.3542,398.8242 145.7214,397.7647 146.6637,395.6455 147.6061,393.5264 148.0749,389.4053 148.0749,383.2823 L 148.0749,267.1299 180.4333,258.2285 180.4333,367.457 M 226.5173,261.334 226.5173,336.0849 C 226.5173,338.1601 226.9177,340.1133 227.7184,341.9492 228.5192,343.7851 229.6277,345.3671 231.0388,346.6855 232.4548,348.0039 234.1003,349.0635 235.985,349.8643 237.8698,350.665 239.8962,351.0654 242.0642,351.0654 244.5104,351.0654 247.2937,349.6934 250.6823,347.3203 256.0485,343.5605 259.3004,340.9775 259.3004,337.9209 259.3004,337.1885 259.3004,261.334 259.3004,261.334 L 291.5173,261.334 291.5173,367.457 259.3004,367.457 259.3004,357.5644 C 255.0622,361.1435 250.5407,364.0147 245.736,366.1826 240.9313,368.3505 236.2683,369.4345 231.7468,369.4345 226.4733,369.4345 221.571,368.5605 217.0495,366.8174 212.528,365.0742 208.5729,362.6963 205.1843,359.6835 201.7907,356.6709 199.1296,353.1358 197.196,349.083 195.2673,345.0351 194.3005,340.6992 194.3005,336.0849 L 194.3005,261.334 226.5173,261.334 M 336.6979,367.457 304.6228,367.457 304.6228,218.6631 336.6979,209.7617 336.6979,367.457 M 350.0964,267.1299 382.3132,258.2285 382.3132,367.457 350.0964,367.457 350.0964,267.1299 M 449.6277,312.6279 C 446.5173,313.9511 443.3825,315.4795 440.2282,317.2226 437.0739,318.9658 434.1979,320.875 431.61,322.9453 429.0173,325.0156 426.9225,327.2324 425.3209,329.5859 423.7194,331.9394 422.9187,334.3906 422.9187,336.9345 422.9187,338.9121 423.1774,340.8213 423.695,342.6573 424.2125,344.4931 424.945,346.0703 425.8874,347.3886 426.8298,348.707 427.8649,349.7667 428.9978,350.5674 430.1257,351.3681 431.3513,351.7685 432.6697,351.7685 435.3063,351.7685 437.9674,350.9678 440.653,349.3661 443.3385,347.7647 446.3268,345.7431 449.6277,343.292 L 449.6277,312.6279 M 481.9812,367.457 449.6277,367.457 449.6277,358.9755 C 447.8357,360.4844 446.0924,361.876 444.3982,363.1455 442.7038,364.415 440.7947,365.5234 438.6754,366.4658 436.5563,367.4081 434.1784,368.1358 431.5368,368.6581 428.9,369.1758 425.7897,369.4345 422.2155,369.4345 417.3132,369.4345 412.9089,368.7265 409.0027,367.3154 405.0915,365.8994 401.7712,363.9706 399.0417,361.5195 396.3073,359.0733 394.2125,356.1729 392.7527,352.8281 391.2927,349.4883 390.5603,345.8359 390.5603,341.8809 390.5603,337.8281 391.3365,334.1563 392.8942,330.8554 394.4469,327.5595 396.566,324.5956 399.2517,321.9542 401.9372,319.3174 405.067,316.9639 408.6462,314.8886 412.2253,312.8184 416.068,310.9091 420.1647,309.166 424.2614,307.4229 428.524,305.8261 432.9528,304.3661 437.3767,302.9063 441.7614,301.5146 446.0924,300.1963 L 449.6277,299.3466 449.6277,288.8925 C 449.6277,282.1103 448.3288,277.3057 445.7409,274.4785 443.1482,271.6514 439.6862,270.2402 435.3552,270.2402 430.2673,270.2402 426.7322,271.4658 424.7545,273.9121 422.777,276.3633 421.7858,279.3271 421.7858,282.8135 421.7858,284.791 421.5759,286.7246 421.151,288.6094 420.7312,290.4941 419.9987,292.1396 418.9635,293.5557 417.9284,294.9668 416.444,296.0996 414.5104,296.9443 412.5817,297.7939 410.1549,298.2188 407.235,298.2188 402.7135,298.2188 399.0417,296.9199 396.2145,294.332 393.3874,291.7393 391.9763,288.4678 391.9763,284.5078 391.9763,280.8359 393.2214,277.4228 395.7165,274.2685 398.2165,271.1094 401.5808,268.3994 405.8239,266.1435 410.0622,263.8779 414.9597,262.0908 420.5163,260.7724 426.0729,259.4541 431.9615,258.7949 438.1774,258.7949 445.8093,258.7949 452.3815,259.4785 457.8942,260.8408 463.402,262.208 467.9479,264.1611 471.527,266.7051 475.1062,269.249 477.7428,272.3105 479.4372,275.8896 481.1364,279.4687 481.9812,283.4775 481.9812,287.9014 L 481.9812,367.457"
         style="fill:#000000;fill-opacity:1;fill-rule:nonzero;stroke:none"
         inkscape:connector-curvature="0" />
      <path
         id="path4152"
         d="M 389.6862,230.9287 C 389.6862,243.0137 379.8913,252.8037 367.8112,252.8037 355.7263,252.8037 345.9362,243.0137 345.9362,230.9287 345.9362,218.8486 355.7263,209.0537 367.8112,209.0537 379.8913,209.0537 389.6862,218.8486 389.6862,230.9287"
         style="fill:#ca3a33;fill-opacity:1;fill-rule:nonzero;stroke:none"
         inkscape:connector-curvature="0" />
      <path
         id="path4154"
         d="M 186.7858,230.9287 C 186.7858,243.0137 176.9909,252.8037 164.9108,252.8037 152.8307,252.8037 143.0358,243.0137 143.0358,230.9287 143.0358,218.8486 152.8307,209.0537 164.9108,209.0537 176.9909,209.0537 186.7858,218.8486 186.7858,230.9287"
         style="fill:#3f61d7;fill-opacity:1;fill-rule:nonzero;stroke:none"
         inkscape:connector-curvature="0" />
      <path
         id="path4156"
         d="M 442.2448,230.9287 C 442.2448,243.0137 432.4499,252.8037 420.3698,252.8037 408.2897,252.8037 398.4948,243.0137 398.4948,230.9287 398.4948,218.8486 408.2897,209.0537 420.3698,209.0537 432.4499,209.0537 442.2448,218.8486 442.2448,230.9287"
         style="fill:#9457b0;fill-opacity:1;fill-rule:nonzero;stroke:none"
         inkscape:connector-curvature="0" />
      <path
         id="path4158"
         d="M 415.9704,185.4062 C 415.9704,197.4863 406.1754,207.2812 394.0954,207.2812 382.0104,207.2812 372.2204,197.4863 372.2204,185.4062 372.2204,173.3262 382.0104,163.5312 394.0954,163.5312 406.1754,163.5312 415.9704,173.3262 415.9704,185.4062"
         style="fill:#389723;fill-opacity:1;fill-rule:nonzero;stroke:none"
         inkscape:connector-curvature="0" />
    </g>
    <flowRoot
       xml:space="preserve"
       id="flowRoot4139"
       style="font-style:normal;font-weight:normal;font-size:10px;line-height:125%;font-family:sans-serif;letter-spacing:0px;word-spacing:0px;fill:#000000;fill-opacity:1;stroke:none;stroke-width:1px;stroke-linecap:butt;stroke-linejoin:miter;stroke-opacity:1"><flowRegion
         id="flowRegion4141"><rect
           id="rect4143"
           width="442.4468"
           height="117.1777"
           x="211.1219"
           y="305.8595" /></flowRegion><flowPara
         id="flowPara4145" /></flowRoot>  </g>
</svg>
