<?xml version="1.0" encoding="UTF-8"?>
<!-- Created with Inkscape (http://www.inkscape.org/) -->
<svg width="44.53mm" height="20.461mm" version="1.1" viewBox="0 0 44.53 20.461" xmlns="http://www.w3.org/2000/svg" xmlns:cc="http://creativecommons.org/ns#" xmlns:dc="http://purl.org/dc/elements/1.1/" xmlns:rdf="http://www.w3.org/1999/02/22-rdf-syntax-ns#">
 <defs>
  <clipPath id="clipPath601-7">
   <path d="m0 3395.5h1400v-3395.5h-1400z"/>
  </clipPath>
 </defs>
 <metadata>
  <rdf:RDF>
   <cc:Work rdf:about="">
    <dc:format>image/svg+xml</dc:format>
    <dc:type rdf:resource="http://purl.org/dc/dcmitype/StillImage"/>
    <dc:title/>
   </cc:Work>
  </rdf:RDF>
 </metadata>
 <g transform="translate(-63.158 -131.04)">
  <g transform="matrix(.35278 0 0 -.35278 52.974 1323.2)" clip-path="url(#clipPath601-7)">
   <g transform="translate(35.194 3329.3)">
    <path d="m0 0c0.653 0 1.176 0.19 1.57 0.572 0.393 0.381 0.59 0.889 0.59 1.525h3.316l0.037-0.076c0.033-1.373-0.481-2.521-1.544-3.447-1.063-0.924-2.386-1.387-3.968-1.387-2.025 0-3.587 0.641-4.684 1.922-1.097 1.28-1.645 2.926-1.645 4.935v0.376c0 2.002 0.563 3.646 1.689 4.936s2.731 1.934 4.816 1.934c1.097 0 2.08-0.162 2.951-0.489 0.87-0.327 1.596-0.787 2.172-1.382l0.051-3.629h-2.978l-0.602 2.123c-0.185 0.158-0.411 0.291-0.679 0.395-0.268 0.105-0.573 0.158-0.917 0.158-1.038 0-1.771-0.377-2.197-1.131-0.428-0.754-0.641-1.725-0.641-2.914v-0.376c0-1.214 0.196-2.191 0.59-2.933 0.395-0.741 1.085-1.112 2.073-1.112" fill="#111315"/>
   </g>
   <g transform="translate(45.518 3333.4)">
    <path d="m0 0c0-1.239 0.217-2.233 0.653-2.981 0.436-0.75 1.139-1.125 2.11-1.125 0.946 0 1.639 0.377 2.078 1.131 0.439 0.753 0.659 1.745 0.659 2.976v0.264c0 1.206-0.222 2.189-0.666 2.951-0.443 0.762-1.143 1.144-2.097 1.144s-1.649-0.382-2.084-1.144-0.653-1.745-0.653-2.951zm-3.667 0.263c0 2.026 0.567 3.687 1.702 4.979s2.702 1.939 4.703 1.939c2.009 0 3.581-0.645 4.715-1.934s1.702-2.951 1.702-4.985v-0.264c0-2.042-0.567-3.706-1.702-4.991s-2.698-1.928-4.69-1.928c-2.018 0-3.594 0.643-4.728 1.928s-1.702 2.949-1.702 4.991z" fill="#111315"/>
   </g>
   <g transform="translate(55.068 3338.1)">
    <path d="m0 0v2.211h5.362l0.15-1.797c0.436 0.653 0.981 1.158 1.639 1.514 0.658 0.355 1.417 0.533 2.279 0.533 0.871 0 1.616-0.192 2.235-0.577 0.62-0.386 1.088-0.967 1.407-1.745 0.418 0.729 0.962 1.297 1.632 1.707 0.669 0.41 1.457 0.615 2.361 0.615 1.339 0 2.396-0.462 3.171-1.387 0.774-0.926 1.161-2.334 1.161-4.227v-5.65l1.771-0.377v-2.197h-7.02v2.197l1.583 0.377v5.664c0 1.029-0.167 1.745-0.502 2.146-0.334 0.402-0.833 0.604-1.494 0.604-0.52 0-0.968-0.115-1.35-0.346-0.381-0.231-0.684-0.551-0.91-0.961 0-0.159 4e-3 -0.295 0.012-0.408 9e-3 -0.113 0.013-0.229 0.013-0.346v-6.354l1.482-0.377v-2.197h-6.618v2.197l1.482 0.377v5.664c0 1.004-0.167 1.714-0.502 2.128-0.335 0.415-0.837 0.622-1.507 0.622-0.494 0-0.927-0.095-1.3-0.283s-0.68-0.454-0.923-0.797v-7.334l1.583-0.377v-2.197h-7.009v2.197l1.771 0.377v8.426z" fill="#111315"/>
   </g>
   <g transform="translate(88.919 3333.4)">
    <path d="m0 0c0 1.28-0.215 2.319-0.642 3.114-0.426 0.795-1.08 1.193-1.959 1.193-0.552 0-1.022-0.113-1.413-0.34-0.388-0.226-0.696-0.549-0.923-0.967v-5.952c0.227-0.386 0.535-0.679 0.923-0.879 0.39-0.201 0.868-0.302 1.439-0.302 0.887 0 1.538 0.348 1.952 1.043 0.415 0.694 0.622 1.637 0.622 2.825v0.265zm-10.55 4.696v2.211h5.325l0.176-1.583c0.403 0.586 0.884 1.038 1.445 1.356s1.213 0.477 1.958 0.477c1.683 0 2.99-0.656 3.918-1.971 0.93-1.314 1.396-3.044 1.396-5.187v-0.264c0-2.009-0.466-3.626-1.396-4.847-0.928-1.223-2.226-1.834-3.892-1.834-0.712 0-1.345 0.131-1.897 0.396-0.551 0.263-1.024 0.651-1.419 1.161v-3.93l1.772-0.377v-2.211h-7.196v2.211l1.77 0.377v13.638z" fill="#111315"/>
   </g>
   <g transform="translate(103.21 3328.5)">
    <path d="m0 0c-0.437-0.637-0.975-1.127-1.614-1.47-0.641-0.343-1.371-0.515-2.192-0.515-1.431 0-2.552 0.458-3.365 1.375-0.812 0.916-1.218 2.342-1.218 4.275v5.613l-1.494 0.377v2.211h5.161v-8.227c0-0.987 0.165-1.697 0.496-2.128 0.33-0.431 0.823-0.646 1.476-0.646 0.577 0 1.077 0.094 1.502 0.282 0.422 0.188 0.768 0.459 1.034 0.811v7.32l-1.606 0.377v2.211h5.273v-11.012l1.647-0.377v-2.197h-4.861z" fill="#111315"/>
   </g>
   <g transform="translate(114.14 3343.6)">
    <path d="m0 0v-3.327h2.386v-2.574h-2.386v-6.92c0-0.527 0.107-0.904 0.326-1.131 0.218-0.226 0.511-0.338 0.88-0.338 0.25 0 0.471 0.01 0.657 0.031 0.19 0.021 0.401 0.057 0.636 0.106l0.314-2.649c-0.411-0.126-0.816-0.221-1.219-0.283-0.402-0.063-0.838-0.094-1.306-0.094-1.266 0-2.237 0.348-2.92 1.042s-1.022 1.796-1.022 3.303v6.933h-1.998v2.574h1.998v3.327z" fill="#111315"/>
   </g>
   <g transform="translate(118.2 3328.9)">
    <path d="m0 0 1.771 0.377v8.426l-1.958 0.377v2.211h5.625v-11.014l1.758-0.377v-2.197h-7.196z" fill="#111315"/>
   </g>
   <g transform="translate(126.66 3328.9)">
    <path d="m0 0 1.759 0.377v8.426l-1.946 0.377v2.211h5.362l0.162-1.947c0.452 0.695 1.01 1.234 1.671 1.62 0.66 0.385 1.401 0.577 2.223 0.577 1.373 0 2.444-0.432 3.214-1.293 0.772-0.862 1.156-2.215 1.156-4.057v-5.914l1.757-0.377v-2.197h-7.006v2.197l1.568 0.377v5.902c0 0.912-0.184 1.559-0.553 1.939-0.367 0.381-0.925 0.572-1.67 0.572-0.485 0-0.921-0.1-1.305-0.296-0.386-0.196-0.708-0.476-0.968-0.835v-7.283l1.481-0.377v-2.197h-6.906v2.198z" fill="#111315"/>
   </g>
   <g transform="translate(146.21 3333.2)">
    <path d="m0 0c0-1.188 0.201-2.124 0.604-2.808 0.402-0.682 1.054-1.022 1.959-1.022 0.56 0 1.037 0.103 1.425 0.308 0.391 0.205 0.701 0.504 0.937 0.898v5.902c-0.235 0.41-0.546 0.729-0.937 0.954-0.388 0.227-0.855 0.34-1.399 0.34-0.897 0-1.552-0.398-1.966-1.193s-0.622-1.834-0.622-3.114v-0.265zm-3.667 0.264c0 2.143 0.468 3.872 1.4 5.187 0.933 1.315 2.243 1.971 3.924 1.971 0.763 0 1.433-0.169 2.01-0.508 0.578-0.34 1.071-0.822 1.482-1.451l0.264 1.709h3.19v-13.186c0-1.792-0.564-3.222-1.69-4.289s-2.672-1.602-4.641-1.602c-0.685 0-1.414 0.095-2.184 0.283-0.772 0.188-1.482 0.445-2.136 0.771l0.68 2.574c0.586-0.25 1.172-0.449 1.758-0.596s1.205-0.22 1.857-0.22c0.897 0 1.566 0.272 2.01 0.815 0.442 0.545 0.666 1.303 0.666 2.273v0.892c-0.402-0.511-0.875-0.899-1.419-1.167-0.545-0.269-1.168-0.402-1.871-0.402-1.666 0-2.967 0.613-3.9 1.84-0.932 1.227-1.4 2.84-1.4 4.841z" fill="#111315"/>
   </g>
   <g transform="translate(80.703 3377.1)">
    <path d="m0 0v-3.672l-3.254-0.626v-16.96c0-2.935-0.957-5.261-2.869-6.979-1.911-1.717-4.328-2.576-7.249-2.576-3.171 0-5.682 0.771-7.53 2.316-1.851 1.543-2.741 3.817-2.67 6.822l0.042 0.125h5.925c0-1.599 0.382-2.764 1.146-3.494 0.766-0.73 1.794-1.095 3.089-1.095 1.126 0 2.081 0.435 2.867 1.304 0.786 0.87 1.18 2.062 1.18 3.578v16.959l-3.254 0.626v3.672h9.324z" fill="#111315"/>
   </g>
   <g transform="translate(96.664 3349.6)">
    <path d="m0 0c-0.724-1.058-1.615-1.871-2.681-2.441-1.064-0.57-2.277-0.855-3.639-0.855-2.378 0-4.243 0.762-5.591 2.285-1.35 1.522-2.024 3.89-2.024 7.103v9.325l-2.482 0.626v3.671h8.574v-13.665c0-1.641 0.275-2.82 0.824-3.536s1.368-1.074 2.453-1.074c0.959 0 1.79 0.156 2.493 0.47 0.701 0.313 1.274 0.761 1.72 1.346v12.161l-2.669 0.626v3.671h8.761v-18.295l2.733-0.626v-3.65h-8.074z" fill="#111315"/>
   </g>
   <g transform="translate(106.46 3375.6)">
    <path d="m0 0v3.672h9.347v-28.268l2.94-0.626v-3.65h-11.975v3.65l2.942 0.626v23.97z" fill="#111315"/>
   </g>
   <path d="m129.57 3374.7h-6.092v4.568h6.092zm-9.032-24.325 2.94 0.626v13.998l-3.254 0.626v3.671h9.346v-18.295l2.921-0.626v-3.65h-11.953z" fill="#111315"/>
   <g transform="translate(142.78 3350.8)">
    <path d="m0 0c0.918 0 1.753 0.198 2.504 0.595s1.335 0.894 1.752 1.491v3.442h-3.108c-1.293 0-2.273-0.302-2.941-0.907-0.667-0.605-1.001-1.332-1.001-2.18 0-0.765 0.246-1.363 0.741-1.794 0.492-0.432 1.177-0.647 2.053-0.647m5.279-4.068c-0.167 0.376-0.313 0.762-0.438 1.157-0.125 0.396-0.223 0.797-0.293 1.2-0.723-0.835-1.603-1.509-2.639-2.024-1.036-0.514-2.221-0.771-3.556-0.771-2.211 0-3.969 0.602-5.269 1.805-1.301 1.203-1.951 2.84-1.951 4.914 0 2.113 0.849 3.748 2.546 4.902 1.696 1.154 4.186 1.731 7.468 1.731h3.108v2.212c0 1.085-0.313 1.926-0.938 2.524s-1.55 0.897-2.774 0.897c-0.695 0-1.314-0.08-1.855-0.24-0.543-0.16-0.981-0.351-1.315-0.574l-0.395-2.42h-4.59l0.02 5.007c1.113 0.751 2.39 1.384 3.829 1.899 1.439 0.514 3.007 0.771 4.704 0.771 2.796 0 5.065-0.685 6.812-2.055 1.744-1.37 2.617-3.32 2.617-5.852v-9.325c0-0.348 4e-3 -0.675 0.012-0.98 7e-3 -0.306 0.031-0.598 0.072-0.876l1.858-0.25v-3.65h-7.033z" fill="#111315"/>
   </g>
   <g transform="translate(43.914 3369.3)">
    <path d="m0 0c-2.027-2.028-2.027-5.315 0-7.343 2.028-2.028 5.315-2.028 7.344 0 2.026 2.028 2.026 5.315 0 7.343-2.028 2.028-5.316 2.028-7.344 0" fill="#3da62a"/>
   </g>
   <g transform="translate(31.213 3369.3)">
    <path d="m0 0c-2.028-2.028-2.028-5.315 0-7.343 2.027-2.028 5.314-2.028 7.343 0 2.026 2.028 2.026 5.315 0 7.343-2.029 2.028-5.316 2.028-7.343 0" fill="#d44e30"/>
   </g>
   <g transform="translate(43.914 3356.6)">
    <path d="m0 0c-2.027-2.027-2.027-5.315 0-7.343 2.028-2.027 5.315-2.027 7.344 0 2.026 2.028 2.026 5.315 0 7.343-2.028 2.028-5.316 2.028-7.344 0" fill="#8f54ab"/>
   </g>
   <g transform="translate(31.18 3356.6)">
    <path d="m0 0c-2.046-2.027-2.046-5.315 0-7.343 2.046-2.027 5.363-2.027 7.409 0 2.046 2.028 2.046 5.315 0 7.343s-5.363 2.028-7.409 0" fill="#4063d8"/>
   </g>
  </g>
 </g>
</svg>
